<?xml version="1.0" standalone="no"?>
<!DOCTYPE svg PUBLIC "-//W3C//DTD SVG 20010904//EN"
 "http://www.w3.org/TR/2001/REC-SVG-20010904/DTD/svg10.dtd">
<svg version="1.0" xmlns="http://www.w3.org/2000/svg"
 width="819.000000pt" height="819.000000pt" viewBox="0 0 819.000000 819.000000"
 preserveAspectRatio="xMidYMid meet">
<metadata>
Created by potrace 1.14, written by Peter Selinger 2001-2017
</metadata>
<g transform="translate(0.000000,819.000000) scale(0.100000,-0.100000)"
fill="#000000" stroke="none">
<path d="M4047 7474 c-1 -1 -63 -5 -137 -8 -74 -3 -146 -8 -160 -11 -14 -2
-47 -6 -75 -9 -92 -10 -288 -45 -370 -67 -22 -6 -47 -12 -55 -14 -65 -12 -276
-81 -400 -130 -279 -109 -633 -313 -845 -486 -148 -122 -339 -303 -457 -435
-104 -117 -266 -342 -360 -499 -179 -300 -334 -700 -402 -1040 -16 -84 -19
-99 -35 -205 -40 -265 -42 -683 -5 -911 2 -15 6 -45 9 -67 19 -154 100 -476
160 -637 142 -381 322 -698 572 -1005 111 -136 355 -378 480 -477 20 -15 41
-33 47 -38 39 -37 304 -217 391 -265 70 -40 278 -145 325 -165 25 -10 68 -29
97 -41 142 -63 495 -166 638 -187 17 -3 57 -10 90 -16 86 -15 119 -19 330 -37
59 -5 371 -4 435 1 115 9 177 16 235 25 33 5 78 11 100 15 117 17 246 47 395
91 454 133 881 365 1251 680 76 65 329 324 389 399 35 44 67 82 70 85 13 10
170 238 221 320 224 362 401 854 455 1265 3 22 7 51 10 65 2 14 7 57 10 95 3
39 7 86 10 105 4 40 4 400 0 445 -2 17 -6 68 -11 115 -4 47 -9 94 -11 105 -2
10 -6 37 -9 60 -31 222 -119 551 -200 746 -15 35 -34 82 -43 104 -23 56 -159
321 -191 373 -234 378 -486 666 -801 917 -42 33 -89 69 -104 80 -16 11 -33 25
-40 30 -16 14 -106 73 -221 144 -190 118 -507 261 -720 325 -49 15 -101 31
-115 36 -14 5 -41 12 -60 16 -19 4 -39 9 -45 10 -143 32 -197 44 -230 48 -23
4 -50 8 -60 10 -11 2 -49 7 -85 11 -36 4 -74 9 -85 11 -28 5 -384 22 -388 18z"/>
</g>
</svg>
